<mxfile host="app.diagrams.net" agent="Mozilla/5.0 (Macintosh; Intel Mac OS X 10_15_7) AppleWebKit/605.1.15 (KHTML, like Gecko) Version/18.1 Safari/605.1.15" version="27.0.6">
  <diagram id="C5RBs43oDa-KdzZeNtuy" name="Page-1">
    <mxGraphModel dx="984" dy="779" grid="0" gridSize="10" guides="1" tooltips="1" connect="1" arrows="1" fold="1" page="1" pageScale="1" pageWidth="1169" pageHeight="827" math="0" shadow="0">
      <root>
        <mxCell id="WIyWlLk6GJQsqaUBKTNV-0" />
        <mxCell id="WIyWlLk6GJQsqaUBKTNV-1" parent="WIyWlLk6GJQsqaUBKTNV-0" />
        <mxCell id="6Sl3QuTrEp0qTI35l34T-0" value="Korisnik" style="swimlane;fontStyle=1;align=center;verticalAlign=top;childLayout=stackLayout;horizontal=1;startSize=26;horizontalStack=0;resizeParent=1;resizeParentMax=0;resizeLast=0;collapsible=1;marginBottom=0;whiteSpace=wrap;html=1;fillColor=#fff2cc;strokeColor=#d6b656;" parent="WIyWlLk6GJQsqaUBKTNV-1" vertex="1">
          <mxGeometry x="434" y="250" width="251" height="366" as="geometry" />
        </mxCell>
        <mxCell id="6Sl3QuTrEp0qTI35l34T-1" value="+id: int&lt;div&gt;+ime: string&lt;/div&gt;&lt;div&gt;+prezime: string&lt;/div&gt;&lt;div&gt;+email: string&lt;/div&gt;&lt;div&gt;+grad: string&lt;/div&gt;&lt;div&gt;+adresa: string&lt;/div&gt;&lt;div&gt;+datumRegistracije: date&lt;/div&gt;&lt;div&gt;-sifra: string&lt;/div&gt;&lt;div&gt;+brojTelefona: string&lt;/div&gt;&lt;div&gt;+uloga: Uloga&lt;/div&gt;&lt;div&gt;+imeKurirskeSluzbe: string | null&lt;/div&gt;" style="text;strokeColor=none;fillColor=none;align=left;verticalAlign=top;spacingLeft=4;spacingRight=4;overflow=hidden;rotatable=0;points=[[0,0.5],[1,0.5]];portConstraint=eastwest;whiteSpace=wrap;html=1;" parent="6Sl3QuTrEp0qTI35l34T-0" vertex="1">
          <mxGeometry y="26" width="251" height="164" as="geometry" />
        </mxCell>
        <mxCell id="6Sl3QuTrEp0qTI35l34T-2" value="" style="line;strokeWidth=1;fillColor=none;align=left;verticalAlign=middle;spacingTop=-1;spacingLeft=3;spacingRight=3;rotatable=0;labelPosition=right;points=[];portConstraint=eastwest;strokeColor=inherit;" parent="6Sl3QuTrEp0qTI35l34T-0" vertex="1">
          <mxGeometry y="190" width="251" height="8" as="geometry" />
        </mxCell>
        <mxCell id="6Sl3QuTrEp0qTI35l34T-3" value="+dajArtikle(): List&amp;lt;Artikal&amp;gt;&lt;div&gt;+objaviArtikal(a: Artikal): void&lt;/div&gt;&lt;div&gt;+azurirajArtikal(a: Artikal): void&lt;/div&gt;&lt;div&gt;+obrisiArtikal(a: Artikal): void&lt;br&gt;&lt;div&gt;+zaprati(k: Korisnik): void&lt;/div&gt;&lt;/div&gt;&lt;div&gt;+naruci(a: Artikal): void&lt;/div&gt;&lt;div&gt;&lt;div&gt;+dajZaprimljeneNarudzbe(): List&amp;lt;Narudzba&amp;gt;&lt;/div&gt;+zaprimiNarudzbu(n: Narudzba): void&lt;div&gt;+otkaziNarudzbu(n: Narudzba): void&lt;/div&gt;&lt;div&gt;+azurirajStatusNarudzbe(n: Narudzba, s: Status): void&lt;/div&gt;&lt;/div&gt;" style="text;strokeColor=none;fillColor=none;align=left;verticalAlign=top;spacingLeft=4;spacingRight=4;overflow=hidden;rotatable=0;points=[[0,0.5],[1,0.5]];portConstraint=eastwest;whiteSpace=wrap;html=1;" parent="6Sl3QuTrEp0qTI35l34T-0" vertex="1">
          <mxGeometry y="198" width="251" height="168" as="geometry" />
        </mxCell>
        <mxCell id="4ST3DuIqLx3w5l3ZiNcd-1" value="&lt;div&gt;&amp;lt;&amp;lt;enumeration&amp;gt;&amp;gt;&lt;/div&gt;Uloga" style="swimlane;fontStyle=1;align=center;verticalAlign=top;childLayout=stackLayout;horizontal=1;startSize=40;horizontalStack=0;resizeParent=1;resizeParentMax=0;resizeLast=0;collapsible=1;marginBottom=0;whiteSpace=wrap;html=1;fillColor=#f5f5f5;fontColor=#333333;strokeColor=#666666;" parent="WIyWlLk6GJQsqaUBKTNV-1" vertex="1">
          <mxGeometry x="479.5" y="637" width="160" height="102" as="geometry" />
        </mxCell>
        <mxCell id="4ST3DuIqLx3w5l3ZiNcd-2" value="ADMIN&lt;div&gt;KURIRSKA_SLUZBA&lt;br&gt;KORISNIK&lt;/div&gt;" style="text;strokeColor=none;fillColor=none;align=left;verticalAlign=top;spacingLeft=4;spacingRight=4;overflow=hidden;rotatable=0;points=[[0,0.5],[1,0.5]];portConstraint=eastwest;whiteSpace=wrap;html=1;" parent="4ST3DuIqLx3w5l3ZiNcd-1" vertex="1">
          <mxGeometry y="40" width="160" height="54" as="geometry" />
        </mxCell>
        <mxCell id="4ST3DuIqLx3w5l3ZiNcd-3" value="" style="line;strokeWidth=1;fillColor=none;align=left;verticalAlign=middle;spacingTop=-1;spacingLeft=3;spacingRight=3;rotatable=0;labelPosition=right;points=[];portConstraint=eastwest;strokeColor=inherit;" parent="4ST3DuIqLx3w5l3ZiNcd-1" vertex="1">
          <mxGeometry y="94" width="160" height="8" as="geometry" />
        </mxCell>
        <mxCell id="4ST3DuIqLx3w5l3ZiNcd-5" value="Artikal" style="swimlane;fontStyle=1;align=center;verticalAlign=top;childLayout=stackLayout;horizontal=1;startSize=26;horizontalStack=0;resizeParent=1;resizeParentMax=0;resizeLast=0;collapsible=1;marginBottom=0;whiteSpace=wrap;html=1;fillColor=#d5e8d4;strokeColor=#82b366;" parent="WIyWlLk6GJQsqaUBKTNV-1" vertex="1">
          <mxGeometry x="947" y="190" width="200" height="155" as="geometry" />
        </mxCell>
        <mxCell id="4ST3DuIqLx3w5l3ZiNcd-6" value="+id: int&lt;div&gt;+naziv: string&lt;/div&gt;&lt;div&gt;+opis: string&lt;/div&gt;&lt;div&gt;+cijena: float&lt;/div&gt;&lt;div&gt;+lokacija: string&lt;/div&gt;&lt;div&gt;+datumObjave: date&lt;/div&gt;&lt;div&gt;+stanje: Stanje&lt;/div&gt;&lt;div&gt;+korisnikId: int&lt;/div&gt;&lt;div&gt;&lt;br&gt;&lt;/div&gt;" style="text;strokeColor=none;fillColor=none;align=left;verticalAlign=top;spacingLeft=4;spacingRight=4;overflow=hidden;rotatable=0;points=[[0,0.5],[1,0.5]];portConstraint=eastwest;whiteSpace=wrap;html=1;" parent="4ST3DuIqLx3w5l3ZiNcd-5" vertex="1">
          <mxGeometry y="26" width="200" height="121" as="geometry" />
        </mxCell>
        <mxCell id="4ST3DuIqLx3w5l3ZiNcd-7" value="" style="line;strokeWidth=1;fillColor=none;align=left;verticalAlign=middle;spacingTop=-1;spacingLeft=3;spacingRight=3;rotatable=0;labelPosition=right;points=[];portConstraint=eastwest;strokeColor=inherit;" parent="4ST3DuIqLx3w5l3ZiNcd-5" vertex="1">
          <mxGeometry y="147" width="200" height="8" as="geometry" />
        </mxCell>
        <mxCell id="4ST3DuIqLx3w5l3ZiNcd-9" value="&lt;div&gt;&amp;lt;&amp;lt;enumeration&amp;gt;&amp;gt;&lt;/div&gt;Stanje" style="swimlane;fontStyle=1;align=center;verticalAlign=top;childLayout=stackLayout;horizontal=1;startSize=40;horizontalStack=0;resizeParent=1;resizeParentMax=0;resizeLast=0;collapsible=1;marginBottom=0;whiteSpace=wrap;html=1;fillColor=#f5f5f5;fontColor=#333333;strokeColor=#666666;" parent="WIyWlLk6GJQsqaUBKTNV-1" vertex="1">
          <mxGeometry x="850" y="50" width="160" height="80" as="geometry" />
        </mxCell>
        <mxCell id="4ST3DuIqLx3w5l3ZiNcd-10" value="KORISTENO&lt;div&gt;NOVO&lt;/div&gt;" style="text;strokeColor=none;fillColor=none;align=left;verticalAlign=top;spacingLeft=4;spacingRight=4;overflow=hidden;rotatable=0;points=[[0,0.5],[1,0.5]];portConstraint=eastwest;whiteSpace=wrap;html=1;" parent="4ST3DuIqLx3w5l3ZiNcd-9" vertex="1">
          <mxGeometry y="40" width="160" height="32" as="geometry" />
        </mxCell>
        <mxCell id="4ST3DuIqLx3w5l3ZiNcd-11" value="" style="line;strokeWidth=1;fillColor=none;align=left;verticalAlign=middle;spacingTop=-1;spacingLeft=3;spacingRight=3;rotatable=0;labelPosition=right;points=[];portConstraint=eastwest;strokeColor=inherit;" parent="4ST3DuIqLx3w5l3ZiNcd-9" vertex="1">
          <mxGeometry y="72" width="160" height="8" as="geometry" />
        </mxCell>
        <mxCell id="4ST3DuIqLx3w5l3ZiNcd-12" value="Narudzba" style="swimlane;fontStyle=1;align=center;verticalAlign=top;childLayout=stackLayout;horizontal=1;startSize=26;horizontalStack=0;resizeParent=1;resizeParentMax=0;resizeLast=0;collapsible=1;marginBottom=0;whiteSpace=wrap;html=1;fillColor=#e1d5e7;strokeColor=#9673a6;" parent="WIyWlLk6GJQsqaUBKTNV-1" vertex="1">
          <mxGeometry x="950" y="430" width="200" height="142" as="geometry" />
        </mxCell>
        <mxCell id="4ST3DuIqLx3w5l3ZiNcd-13" value="+id: int&lt;div&gt;+datumNarudzbe: date&lt;/div&gt;&lt;div&gt;+status: Status&lt;/div&gt;&lt;div&gt;+datumObrade: date | null&lt;/div&gt;&lt;div&gt;+korisnikId: int&lt;/div&gt;&lt;div&gt;+artikalId: int&lt;/div&gt;&lt;div&gt;+kurirskaSluzbaId: int | null&lt;/div&gt;" style="text;strokeColor=none;fillColor=none;align=left;verticalAlign=top;spacingLeft=4;spacingRight=4;overflow=hidden;rotatable=0;points=[[0,0.5],[1,0.5]];portConstraint=eastwest;whiteSpace=wrap;html=1;" parent="4ST3DuIqLx3w5l3ZiNcd-12" vertex="1">
          <mxGeometry y="26" width="200" height="108" as="geometry" />
        </mxCell>
        <mxCell id="4ST3DuIqLx3w5l3ZiNcd-14" value="" style="line;strokeWidth=1;fillColor=none;align=left;verticalAlign=middle;spacingTop=-1;spacingLeft=3;spacingRight=3;rotatable=0;labelPosition=right;points=[];portConstraint=eastwest;strokeColor=inherit;" parent="4ST3DuIqLx3w5l3ZiNcd-12" vertex="1">
          <mxGeometry y="134" width="200" height="8" as="geometry" />
        </mxCell>
        <mxCell id="4ST3DuIqLx3w5l3ZiNcd-15" value="&lt;div&gt;&amp;lt;&amp;lt;enumeration&amp;gt;&amp;gt;&lt;/div&gt;Status" style="swimlane;fontStyle=1;align=center;verticalAlign=top;childLayout=stackLayout;horizontal=1;startSize=40;horizontalStack=0;resizeParent=1;resizeParentMax=0;resizeLast=0;collapsible=1;marginBottom=0;whiteSpace=wrap;html=1;fillColor=#f5f5f5;fontColor=#333333;strokeColor=#666666;" parent="WIyWlLk6GJQsqaUBKTNV-1" vertex="1">
          <mxGeometry x="850" y="600" width="160" height="98" as="geometry" />
        </mxCell>
        <mxCell id="4ST3DuIqLx3w5l3ZiNcd-16" value="KREIRAN&lt;br&gt;U OBRADI&lt;div&gt;DOSTAVLJEN&lt;/div&gt;" style="text;strokeColor=none;fillColor=none;align=left;verticalAlign=top;spacingLeft=4;spacingRight=4;overflow=hidden;rotatable=0;points=[[0,0.5],[1,0.5]];portConstraint=eastwest;whiteSpace=wrap;html=1;" parent="4ST3DuIqLx3w5l3ZiNcd-15" vertex="1">
          <mxGeometry y="40" width="160" height="50" as="geometry" />
        </mxCell>
        <mxCell id="4ST3DuIqLx3w5l3ZiNcd-17" value="" style="line;strokeWidth=1;fillColor=none;align=left;verticalAlign=middle;spacingTop=-1;spacingLeft=3;spacingRight=3;rotatable=0;labelPosition=right;points=[];portConstraint=eastwest;strokeColor=inherit;" parent="4ST3DuIqLx3w5l3ZiNcd-15" vertex="1">
          <mxGeometry y="90" width="160" height="8" as="geometry" />
        </mxCell>
        <mxCell id="4ST3DuIqLx3w5l3ZiNcd-21" value="Notifikacija" style="swimlane;fontStyle=1;align=center;verticalAlign=top;childLayout=stackLayout;horizontal=1;startSize=26;horizontalStack=0;resizeParent=1;resizeParentMax=0;resizeLast=0;collapsible=1;marginBottom=0;whiteSpace=wrap;html=1;fillColor=#dae8fc;strokeColor=#6c8ebf;" parent="WIyWlLk6GJQsqaUBKTNV-1" vertex="1">
          <mxGeometry x="498.25" y="66" width="122.5" height="112" as="geometry" />
        </mxCell>
        <mxCell id="4ST3DuIqLx3w5l3ZiNcd-22" value="&lt;div&gt;+id: int&lt;/div&gt;&lt;div&gt;+sadrzaj: string&lt;/div&gt;&lt;div&gt;+datumSlanja: string&lt;/div&gt;&lt;div&gt;+procitano: bool&lt;/div&gt;&lt;div&gt;+korisnikId: int&lt;/div&gt;" style="text;strokeColor=none;fillColor=none;align=left;verticalAlign=top;spacingLeft=4;spacingRight=4;overflow=hidden;rotatable=0;points=[[0,0.5],[1,0.5]];portConstraint=eastwest;whiteSpace=wrap;html=1;" parent="4ST3DuIqLx3w5l3ZiNcd-21" vertex="1">
          <mxGeometry y="26" width="122.5" height="78" as="geometry" />
        </mxCell>
        <mxCell id="4ST3DuIqLx3w5l3ZiNcd-23" value="" style="line;strokeWidth=1;fillColor=none;align=left;verticalAlign=middle;spacingTop=-1;spacingLeft=3;spacingRight=3;rotatable=0;labelPosition=right;points=[];portConstraint=eastwest;strokeColor=inherit;" parent="4ST3DuIqLx3w5l3ZiNcd-21" vertex="1">
          <mxGeometry y="104" width="122.5" height="8" as="geometry" />
        </mxCell>
        <mxCell id="4ST3DuIqLx3w5l3ZiNcd-43" value="" style="endArrow=diamondThin;endFill=1;endSize=24;html=1;rounded=0;entryX=0.5;entryY=0;entryDx=0;entryDy=0;exitX=0.5;exitY=1;exitDx=0;exitDy=0;" parent="WIyWlLk6GJQsqaUBKTNV-1" source="4ST3DuIqLx3w5l3ZiNcd-21" target="6Sl3QuTrEp0qTI35l34T-0" edge="1">
          <mxGeometry width="160" relative="1" as="geometry">
            <mxPoint x="350" y="220" as="sourcePoint" />
            <mxPoint x="510" y="220" as="targetPoint" />
          </mxGeometry>
        </mxCell>
        <mxCell id="4ST3DuIqLx3w5l3ZiNcd-44" value="1" style="text;html=1;align=center;verticalAlign=middle;resizable=0;points=[];autosize=1;strokeColor=none;fillColor=none;" parent="WIyWlLk6GJQsqaUBKTNV-1" vertex="1">
          <mxGeometry x="562" y="220" width="30" height="30" as="geometry" />
        </mxCell>
        <mxCell id="4ST3DuIqLx3w5l3ZiNcd-45" value="*" style="text;html=1;align=center;verticalAlign=middle;resizable=0;points=[];autosize=1;strokeColor=none;fillColor=none;" parent="WIyWlLk6GJQsqaUBKTNV-1" vertex="1">
          <mxGeometry x="558" y="178" width="30" height="30" as="geometry" />
        </mxCell>
        <mxCell id="4ST3DuIqLx3w5l3ZiNcd-46" value="" style="endArrow=none;html=1;edgeStyle=orthogonalEdgeStyle;rounded=0;entryX=0.5;entryY=0;entryDx=0;entryDy=0;exitX=0.5;exitY=1.01;exitDx=0;exitDy=0;exitPerimeter=0;" parent="WIyWlLk6GJQsqaUBKTNV-1" source="6Sl3QuTrEp0qTI35l34T-3" target="4ST3DuIqLx3w5l3ZiNcd-1" edge="1">
          <mxGeometry relative="1" as="geometry">
            <mxPoint x="585" y="570" as="sourcePoint" />
            <mxPoint x="810" y="610" as="targetPoint" />
          </mxGeometry>
        </mxCell>
        <mxCell id="4ST3DuIqLx3w5l3ZiNcd-49" value="" style="endArrow=none;html=1;edgeStyle=orthogonalEdgeStyle;rounded=0;entryX=0.5;entryY=0;entryDx=0;entryDy=0;exitX=0.5;exitY=0.875;exitDx=0;exitDy=0;exitPerimeter=0;" parent="WIyWlLk6GJQsqaUBKTNV-1" source="4ST3DuIqLx3w5l3ZiNcd-14" target="4ST3DuIqLx3w5l3ZiNcd-15" edge="1">
          <mxGeometry relative="1" as="geometry">
            <mxPoint x="930" y="560" as="sourcePoint" />
            <mxPoint x="595" y="610" as="targetPoint" />
            <Array as="points" />
          </mxGeometry>
        </mxCell>
        <mxCell id="4ST3DuIqLx3w5l3ZiNcd-51" value="" style="endArrow=diamondThin;endFill=1;endSize=24;html=1;rounded=0;entryX=0.996;entryY=0.03;entryDx=0;entryDy=0;entryPerimeter=0;exitX=-0.016;exitY=0.117;exitDx=0;exitDy=0;exitPerimeter=0;" parent="WIyWlLk6GJQsqaUBKTNV-1" source="qVpA6ZAiq_xvzmip6l7L-1" target="6Sl3QuTrEp0qTI35l34T-1" edge="1">
          <mxGeometry width="160" relative="1" as="geometry">
            <mxPoint x="800" y="280" as="sourcePoint" />
            <mxPoint x="920" y="350" as="targetPoint" />
            <Array as="points">
              <mxPoint x="720" y="258" />
              <mxPoint x="718" y="281" />
            </Array>
          </mxGeometry>
        </mxCell>
        <mxCell id="4ST3DuIqLx3w5l3ZiNcd-52" value="1" style="text;html=1;align=center;verticalAlign=middle;resizable=0;points=[];autosize=1;strokeColor=none;fillColor=none;" parent="WIyWlLk6GJQsqaUBKTNV-1" vertex="1">
          <mxGeometry x="688" y="250" width="30" height="30" as="geometry" />
        </mxCell>
        <mxCell id="4ST3DuIqLx3w5l3ZiNcd-53" value="*" style="text;html=1;align=center;verticalAlign=middle;resizable=0;points=[];autosize=1;strokeColor=none;fillColor=none;" parent="WIyWlLk6GJQsqaUBKTNV-1" vertex="1">
          <mxGeometry x="724" y="231" width="30" height="30" as="geometry" />
        </mxCell>
        <mxCell id="4ST3DuIqLx3w5l3ZiNcd-54" value="" style="endArrow=none;html=1;edgeStyle=orthogonalEdgeStyle;rounded=0;exitX=0.5;exitY=1;exitDx=0;exitDy=0;entryX=0.25;entryY=0;entryDx=0;entryDy=0;" parent="WIyWlLk6GJQsqaUBKTNV-1" source="4ST3DuIqLx3w5l3ZiNcd-9" edge="1" target="4ST3DuIqLx3w5l3ZiNcd-5">
          <mxGeometry relative="1" as="geometry">
            <mxPoint x="940" y="567" as="sourcePoint" />
            <mxPoint x="1000" y="184" as="targetPoint" />
            <Array as="points" />
          </mxGeometry>
        </mxCell>
        <mxCell id="4ST3DuIqLx3w5l3ZiNcd-58" value="" style="endArrow=diamondThin;endFill=1;endSize=24;html=1;rounded=0;exitX=0;exitY=0.704;exitDx=0;exitDy=0;entryX=1;entryY=0.5;entryDx=0;entryDy=0;exitPerimeter=0;" parent="WIyWlLk6GJQsqaUBKTNV-1" source="4ST3DuIqLx3w5l3ZiNcd-13" edge="1" target="6Sl3QuTrEp0qTI35l34T-3">
          <mxGeometry width="160" relative="1" as="geometry">
            <mxPoint x="840" y="251" as="sourcePoint" />
            <mxPoint x="686" y="446" as="targetPoint" />
            <Array as="points">
              <mxPoint x="854" y="532" />
              <mxPoint x="793" y="532" />
            </Array>
          </mxGeometry>
        </mxCell>
        <mxCell id="4ST3DuIqLx3w5l3ZiNcd-59" value="1" style="text;html=1;align=center;verticalAlign=middle;resizable=0;points=[];autosize=1;strokeColor=none;fillColor=none;" parent="WIyWlLk6GJQsqaUBKTNV-1" vertex="1">
          <mxGeometry x="681" y="491" width="30" height="30" as="geometry" />
        </mxCell>
        <mxCell id="4ST3DuIqLx3w5l3ZiNcd-60" value="*" style="text;html=1;align=center;verticalAlign=middle;resizable=0;points=[];autosize=1;strokeColor=none;fillColor=none;" parent="WIyWlLk6GJQsqaUBKTNV-1" vertex="1">
          <mxGeometry x="923" y="498" width="30" height="30" as="geometry" />
        </mxCell>
        <mxCell id="4ST3DuIqLx3w5l3ZiNcd-71" value="" style="endArrow=diamondThin;endFill=0;endSize=24;html=1;rounded=0;entryX=0.5;entryY=0;entryDx=0;entryDy=0;exitX=0.5;exitY=1;exitDx=0;exitDy=0;" parent="WIyWlLk6GJQsqaUBKTNV-1" source="4ST3DuIqLx3w5l3ZiNcd-5" target="4ST3DuIqLx3w5l3ZiNcd-12" edge="1">
          <mxGeometry width="160" relative="1" as="geometry">
            <mxPoint x="785" y="371" as="sourcePoint" />
            <mxPoint x="945" y="371" as="targetPoint" />
          </mxGeometry>
        </mxCell>
        <mxCell id="4ST3DuIqLx3w5l3ZiNcd-72" value="1" style="text;html=1;align=center;verticalAlign=middle;resizable=0;points=[];autosize=1;strokeColor=none;fillColor=none;" parent="WIyWlLk6GJQsqaUBKTNV-1" vertex="1">
          <mxGeometry x="1013" y="397" width="25" height="26" as="geometry" />
        </mxCell>
        <mxCell id="4ST3DuIqLx3w5l3ZiNcd-73" value="1" style="text;html=1;align=center;verticalAlign=middle;resizable=0;points=[];autosize=1;strokeColor=none;fillColor=none;" parent="WIyWlLk6GJQsqaUBKTNV-1" vertex="1">
          <mxGeometry x="1018" y="347" width="25" height="26" as="geometry" />
        </mxCell>
        <mxCell id="4ST3DuIqLx3w5l3ZiNcd-77" value="MailServis" style="swimlane;fontStyle=1;align=center;verticalAlign=top;childLayout=stackLayout;horizontal=1;startSize=26;horizontalStack=0;resizeParent=1;resizeParentMax=0;resizeLast=0;collapsible=1;marginBottom=0;whiteSpace=wrap;html=1;fillColor=#1ba1e2;strokeColor=#006EAF;fontColor=#ffffff;" parent="WIyWlLk6GJQsqaUBKTNV-1" vertex="1">
          <mxGeometry x="153" y="448" width="258" height="106" as="geometry">
            <mxRectangle x="116" y="602" width="90" height="26" as="alternateBounds" />
          </mxGeometry>
        </mxCell>
        <mxCell id="4ST3DuIqLx3w5l3ZiNcd-78" value="-mailPosiljaoca: string" style="text;strokeColor=none;fillColor=none;align=left;verticalAlign=top;spacingLeft=4;spacingRight=4;overflow=hidden;rotatable=0;points=[[0,0.5],[1,0.5]];portConstraint=eastwest;whiteSpace=wrap;html=1;" parent="4ST3DuIqLx3w5l3ZiNcd-77" vertex="1">
          <mxGeometry y="26" width="258" height="21" as="geometry" />
        </mxCell>
        <mxCell id="4ST3DuIqLx3w5l3ZiNcd-79" value="" style="line;strokeWidth=1;fillColor=none;align=left;verticalAlign=middle;spacingTop=-1;spacingLeft=3;spacingRight=3;rotatable=0;labelPosition=right;points=[];portConstraint=eastwest;strokeColor=inherit;" parent="4ST3DuIqLx3w5l3ZiNcd-77" vertex="1">
          <mxGeometry y="47" width="258" height="8" as="geometry" />
        </mxCell>
        <mxCell id="4ST3DuIqLx3w5l3ZiNcd-80" value="+postaviMailPosiljaoca(e: string): void&lt;div&gt;+posaljiMail(naslov: string, tekst: string): void&lt;/div&gt;" style="text;strokeColor=none;fillColor=none;align=left;verticalAlign=top;spacingLeft=4;spacingRight=4;overflow=hidden;rotatable=0;points=[[0,0.5],[1,0.5]];portConstraint=eastwest;whiteSpace=wrap;html=1;" parent="4ST3DuIqLx3w5l3ZiNcd-77" vertex="1">
          <mxGeometry y="55" width="258" height="51" as="geometry" />
        </mxCell>
        <mxCell id="vJtWhq8was5n6sglpwUW-1" value="Pracenje" style="swimlane;fontStyle=1;align=center;verticalAlign=top;childLayout=stackLayout;horizontal=1;startSize=26;horizontalStack=0;resizeParent=1;resizeParentMax=0;resizeLast=0;collapsible=1;marginBottom=0;whiteSpace=wrap;html=1;fillColor=#60a917;strokeColor=#2D7600;fontColor=#ffffff;" parent="WIyWlLk6GJQsqaUBKTNV-1" vertex="1">
          <mxGeometry x="214" y="299" width="136" height="81" as="geometry">
            <mxRectangle x="116" y="602" width="90" height="26" as="alternateBounds" />
          </mxGeometry>
        </mxCell>
        <mxCell id="vJtWhq8was5n6sglpwUW-2" value="&lt;div&gt;+id: int&lt;/div&gt;+praceniId: int&lt;div&gt;+pratilacId: int&lt;/div&gt;" style="text;strokeColor=none;fillColor=none;align=left;verticalAlign=top;spacingLeft=4;spacingRight=4;overflow=hidden;rotatable=0;points=[[0,0.5],[1,0.5]];portConstraint=eastwest;whiteSpace=wrap;html=1;" parent="vJtWhq8was5n6sglpwUW-1" vertex="1">
          <mxGeometry y="26" width="136" height="47" as="geometry" />
        </mxCell>
        <mxCell id="vJtWhq8was5n6sglpwUW-3" value="" style="line;strokeWidth=1;fillColor=none;align=left;verticalAlign=middle;spacingTop=-1;spacingLeft=3;spacingRight=3;rotatable=0;labelPosition=right;points=[];portConstraint=eastwest;strokeColor=inherit;" parent="vJtWhq8was5n6sglpwUW-1" vertex="1">
          <mxGeometry y="73" width="136" height="8" as="geometry" />
        </mxCell>
        <mxCell id="vJtWhq8was5n6sglpwUW-5" value="" style="endArrow=diamondThin;endFill=1;endSize=24;html=1;rounded=0;" parent="WIyWlLk6GJQsqaUBKTNV-1" edge="1">
          <mxGeometry width="160" relative="1" as="geometry">
            <mxPoint x="282" y="298" as="sourcePoint" />
            <mxPoint x="434" y="258" as="targetPoint" />
            <Array as="points">
              <mxPoint x="282" y="256" />
            </Array>
          </mxGeometry>
        </mxCell>
        <mxCell id="vJtWhq8was5n6sglpwUW-6" value="1" style="text;html=1;align=center;verticalAlign=middle;resizable=0;points=[];autosize=1;strokeColor=none;fillColor=none;" parent="WIyWlLk6GJQsqaUBKTNV-1" vertex="1">
          <mxGeometry x="392" y="224" width="30" height="30" as="geometry" />
        </mxCell>
        <mxCell id="vJtWhq8was5n6sglpwUW-7" value="*" style="text;html=1;align=center;verticalAlign=middle;resizable=0;points=[];autosize=1;strokeColor=none;fillColor=none;" parent="WIyWlLk6GJQsqaUBKTNV-1" vertex="1">
          <mxGeometry x="277" y="280" width="30" height="30" as="geometry" />
        </mxCell>
        <mxCell id="vJtWhq8was5n6sglpwUW-8" value="" style="endArrow=diamondThin;endFill=1;endSize=24;html=1;rounded=0;entryX=-0.008;entryY=0.774;entryDx=0;entryDy=0;entryPerimeter=0;" parent="WIyWlLk6GJQsqaUBKTNV-1" target="6Sl3QuTrEp0qTI35l34T-1" edge="1">
          <mxGeometry width="160" relative="1" as="geometry">
            <mxPoint x="280" y="383" as="sourcePoint" />
            <mxPoint x="435" y="399" as="targetPoint" />
            <Array as="points">
              <mxPoint x="280" y="403" />
            </Array>
          </mxGeometry>
        </mxCell>
        <mxCell id="vJtWhq8was5n6sglpwUW-9" value="1" style="text;html=1;align=center;verticalAlign=middle;resizable=0;points=[];autosize=1;strokeColor=none;fillColor=none;" parent="WIyWlLk6GJQsqaUBKTNV-1" vertex="1">
          <mxGeometry x="402" y="373" width="30" height="30" as="geometry" />
        </mxCell>
        <mxCell id="vJtWhq8was5n6sglpwUW-10" value="*" style="text;html=1;align=center;verticalAlign=middle;resizable=0;points=[];autosize=1;strokeColor=none;fillColor=none;" parent="WIyWlLk6GJQsqaUBKTNV-1" vertex="1">
          <mxGeometry x="281" y="380" width="30" height="30" as="geometry" />
        </mxCell>
        <mxCell id="qVpA6ZAiq_xvzmip6l7L-0" value="ArtikalProxy" style="swimlane;fontStyle=1;align=center;verticalAlign=top;childLayout=stackLayout;horizontal=1;startSize=26;horizontalStack=0;resizeParent=1;resizeParentMax=0;resizeLast=0;collapsible=1;marginBottom=0;whiteSpace=wrap;html=1;fillColor=#d80073;strokeColor=#A50040;fontColor=#ffffff;" vertex="1" parent="WIyWlLk6GJQsqaUBKTNV-1">
          <mxGeometry x="732" y="227" width="156" height="125" as="geometry" />
        </mxCell>
        <mxCell id="qVpA6ZAiq_xvzmip6l7L-1" value="+id: int&lt;div&gt;+vlasnikId: int&lt;/div&gt;&lt;div&gt;+artikalId: int&lt;br&gt;&lt;div&gt;&lt;br&gt;&lt;/div&gt;&lt;/div&gt;" style="text;strokeColor=none;fillColor=none;align=left;verticalAlign=top;spacingLeft=4;spacingRight=4;overflow=hidden;rotatable=0;points=[[0,0.5],[1,0.5]];portConstraint=eastwest;whiteSpace=wrap;html=1;" vertex="1" parent="qVpA6ZAiq_xvzmip6l7L-0">
          <mxGeometry y="26" width="156" height="47" as="geometry" />
        </mxCell>
        <mxCell id="qVpA6ZAiq_xvzmip6l7L-2" value="" style="line;strokeWidth=1;fillColor=none;align=left;verticalAlign=middle;spacingTop=-1;spacingLeft=3;spacingRight=3;rotatable=0;labelPosition=right;points=[];portConstraint=eastwest;strokeColor=inherit;" vertex="1" parent="qVpA6ZAiq_xvzmip6l7L-0">
          <mxGeometry y="73" width="156" height="12" as="geometry" />
        </mxCell>
        <mxCell id="qVpA6ZAiq_xvzmip6l7L-4" value="+provjeriPrava(korisnikId):&lt;div&gt;&amp;nbsp;void&lt;/div&gt;" style="text;html=1;align=center;verticalAlign=middle;resizable=0;points=[];autosize=1;strokeColor=none;fillColor=none;" vertex="1" parent="qVpA6ZAiq_xvzmip6l7L-0">
          <mxGeometry y="85" width="156" height="40" as="geometry" />
        </mxCell>
        <mxCell id="qVpA6ZAiq_xvzmip6l7L-5" style="edgeStyle=orthogonalEdgeStyle;rounded=0;orthogonalLoop=1;jettySize=auto;html=1;exitX=1;exitY=0.5;exitDx=0;exitDy=0;entryX=0;entryY=0.5;entryDx=0;entryDy=0;" edge="1" parent="WIyWlLk6GJQsqaUBKTNV-1" source="qVpA6ZAiq_xvzmip6l7L-1" target="4ST3DuIqLx3w5l3ZiNcd-6">
          <mxGeometry relative="1" as="geometry" />
        </mxCell>
        <mxCell id="qVpA6ZAiq_xvzmip6l7L-6" value="referira" style="edgeLabel;html=1;align=center;verticalAlign=middle;resizable=0;points=[];" vertex="1" connectable="0" parent="qVpA6ZAiq_xvzmip6l7L-5">
          <mxGeometry x="0.0588" y="-2" relative="1" as="geometry">
            <mxPoint y="10" as="offset" />
          </mxGeometry>
        </mxCell>
        <mxCell id="qVpA6ZAiq_xvzmip6l7L-24" style="edgeStyle=orthogonalEdgeStyle;rounded=0;orthogonalLoop=1;jettySize=auto;html=1;exitX=1;exitY=0;exitDx=0;exitDy=0;entryX=0.25;entryY=1;entryDx=0;entryDy=0;" edge="1" parent="WIyWlLk6GJQsqaUBKTNV-1" source="qVpA6ZAiq_xvzmip6l7L-20" target="4ST3DuIqLx3w5l3ZiNcd-5">
          <mxGeometry relative="1" as="geometry">
            <Array as="points">
              <mxPoint x="900" y="406" />
              <mxPoint x="997" y="406" />
            </Array>
          </mxGeometry>
        </mxCell>
        <mxCell id="qVpA6ZAiq_xvzmip6l7L-20" value="NarudzbaFasada" style="swimlane;fontStyle=1;align=center;verticalAlign=top;childLayout=stackLayout;horizontal=1;startSize=26;horizontalStack=0;resizeParent=1;resizeParentMax=0;resizeLast=0;collapsible=1;marginBottom=0;whiteSpace=wrap;html=1;fillColor=#d80073;strokeColor=#A50040;fontColor=#ffffff;" vertex="1" parent="WIyWlLk6GJQsqaUBKTNV-1">
          <mxGeometry x="732" y="390" width="168" height="108" as="geometry" />
        </mxCell>
        <mxCell id="qVpA6ZAiq_xvzmip6l7L-21" value="&lt;div&gt;&lt;div&gt;&lt;br&gt;&lt;/div&gt;&lt;/div&gt;" style="text;strokeColor=none;fillColor=none;align=left;verticalAlign=top;spacingLeft=4;spacingRight=4;overflow=hidden;rotatable=0;points=[[0,0.5],[1,0.5]];portConstraint=eastwest;whiteSpace=wrap;html=1;" vertex="1" parent="qVpA6ZAiq_xvzmip6l7L-20">
          <mxGeometry y="26" width="168" height="2" as="geometry" />
        </mxCell>
        <mxCell id="qVpA6ZAiq_xvzmip6l7L-22" value="" style="line;strokeWidth=1;fillColor=none;align=left;verticalAlign=middle;spacingTop=-1;spacingLeft=3;spacingRight=3;rotatable=0;labelPosition=right;points=[];portConstraint=eastwest;strokeColor=inherit;" vertex="1" parent="qVpA6ZAiq_xvzmip6l7L-20">
          <mxGeometry y="28" width="168" height="12" as="geometry" />
        </mxCell>
        <mxCell id="qVpA6ZAiq_xvzmip6l7L-23" value="+zaprimi(n: Narudzba): void&lt;div&gt;&lt;div&gt;+otkazi(n: Narudzba): void&lt;/div&gt;&lt;/div&gt;&lt;div&gt;+promijeniStatus(n: Narudzba,&lt;/div&gt;&lt;div&gt;&amp;nbsp;s: Status): void&lt;/div&gt;" style="text;html=1;align=center;verticalAlign=middle;resizable=0;points=[];autosize=1;strokeColor=none;fillColor=none;" vertex="1" parent="qVpA6ZAiq_xvzmip6l7L-20">
          <mxGeometry y="40" width="168" height="68" as="geometry" />
        </mxCell>
        <mxCell id="qVpA6ZAiq_xvzmip6l7L-25" style="edgeStyle=orthogonalEdgeStyle;rounded=0;orthogonalLoop=1;jettySize=auto;html=1;entryX=-0.01;entryY=0.056;entryDx=0;entryDy=0;entryPerimeter=0;" edge="1" parent="WIyWlLk6GJQsqaUBKTNV-1" source="qVpA6ZAiq_xvzmip6l7L-20" target="4ST3DuIqLx3w5l3ZiNcd-13">
          <mxGeometry relative="1" as="geometry" />
        </mxCell>
        <mxCell id="qVpA6ZAiq_xvzmip6l7L-26" value="" style="endArrow=block;endSize=16;endFill=0;html=1;rounded=0;exitX=1;exitY=0.5;exitDx=0;exitDy=0;entryX=0;entryY=0.5;entryDx=0;entryDy=0;" edge="1" parent="WIyWlLk6GJQsqaUBKTNV-1" source="6Sl3QuTrEp0qTI35l34T-1" target="qVpA6ZAiq_xvzmip6l7L-21">
          <mxGeometry x="0.0075" width="160" relative="1" as="geometry">
            <mxPoint x="701" y="442" as="sourcePoint" />
            <mxPoint x="861" y="442" as="targetPoint" />
            <Array as="points">
              <mxPoint x="707" y="358" />
              <mxPoint x="709" y="417" />
            </Array>
            <mxPoint as="offset" />
          </mxGeometry>
        </mxCell>
      </root>
    </mxGraphModel>
  </diagram>
</mxfile>
